<svg width="23" height="24" viewBox="0 0 23 24" fill="none" xmlns="http://www.w3.org/2000/svg">
<path d="M11.4592 5.25C11.0423 5.25 10.7011 4.9125 10.7011 4.5V3.75C10.7011 1.67812 12.3973 0 14.4915 0H15.2496C15.6665 0 16.0076 0.3375 16.0076 0.75V1.5C16.0076 3.57188 14.3115 5.25 12.2173 5.25H11.4592ZM0.846191 13.5C0.846191 9.92344 2.53764 6 6.1527 6C7.44616 6 8.98126 6.48281 10.071 6.90469C10.9617 7.24688 11.9614 7.24688 12.8522 6.90469C13.9372 6.4875 15.477 6 16.7705 6C20.3855 6 22.077 9.92344 22.077 13.5C22.077 19.5 18.2866 24 14.4962 24C13.7145 24 12.6911 23.6906 12.0562 23.4703C11.6724 23.3391 11.2555 23.3391 10.8717 23.4703C10.2368 23.6906 9.21342 24 8.43166 24C4.63655 24 0.846191 19.5 0.846191 13.5Z" fill="white"/>
</svg>
