<svg width="11" height="8" viewBox="0 0 11 8" fill="none" xmlns="http://www.w3.org/2000/svg">
<path d="M1.34082 3.5C1.06468 3.5 0.84082 3.72386 0.84082 4C0.84082 4.27614 1.06468 4.5 1.34082 4.5L1.34082 3.5ZM10.186 4.35355C10.3813 4.15829 10.3813 3.84171 10.186 3.64645L7.00401 0.464467C6.80875 0.269204 6.49217 0.269204 6.29691 0.464467C6.10165 0.659729 6.10165 0.976311 6.29691 1.17157L9.12533 4L6.29691 6.82843C6.10164 7.02369 6.10164 7.34027 6.29691 7.53553C6.49217 7.7308 6.80875 7.7308 7.00401 7.53553L10.186 4.35355ZM1.34082 4.5L9.83244 4.5L9.83244 3.5L1.34082 3.5L1.34082 4.5Z" fill="#2A2A2A"/>
</svg>
