<svg width="26" height="26" viewBox="0 0 26 26" fill="none" xmlns="http://www.w3.org/2000/svg">
<path d="M20.9324 22.0488L20.9406 20.0488C20.9449 18.988 20.5277 17.9688 19.7806 17.2156C19.0335 16.4624 18.0178 16.0368 16.957 16.0325L8.95706 15.9997C7.8962 15.9954 6.87707 16.4127 6.12386 17.1597C5.37065 17.9068 4.94506 18.9225 4.94072 19.9833L4.93254 21.9833" stroke="#BFBFBF" stroke-width="2" stroke-linecap="round" stroke-linejoin="round"/>
<path d="M12.9734 12.0161C15.1825 12.0252 16.9807 10.2417 16.9897 8.03255C16.9988 5.82343 15.2153 4.02526 13.0061 4.01622C10.797 4.00718 8.99884 5.79069 8.98979 7.99981C8.98075 10.2089 10.7643 12.0071 12.9734 12.0161Z" stroke="#BFBFBF" stroke-width="2" stroke-linecap="round" stroke-linejoin="round"/>
</svg>
