<svg width="22" height="21" viewBox="0 0 22 21" fill="none" xmlns="http://www.w3.org/2000/svg">
<path d="M9.59376 18.3919C9.59377 18.5628 9.54271 18.7298 9.44704 18.8719C9.35136 19.014 9.21537 19.1248 9.05624 19.1902C8.89711 19.2556 8.72199 19.2728 8.55302 19.2395C8.38404 19.2062 8.2288 19.124 8.10691 19.0033C7.98501 18.8825 7.90194 18.7286 7.8682 18.5611C7.83445 18.3935 7.85154 18.2198 7.91731 18.0618C7.98308 17.9039 8.09458 17.7689 8.2377 17.6738C8.38083 17.5787 8.54917 17.5279 8.72143 17.5277C8.83593 17.5276 8.94933 17.5498 9.05516 17.5932C9.16098 17.6366 9.25715 17.7002 9.33817 17.7805C9.41919 17.8608 9.48346 17.9561 9.52732 18.061C9.57117 18.1659 9.59375 18.2784 9.59376 18.3919Z" stroke="#BFBFBF" stroke-width="2" stroke-linecap="round" stroke-linejoin="round"/>
<path d="M19.1817 18.3922C19.1817 18.5631 19.1307 18.7302 19.035 18.8722C18.9393 19.0143 18.8033 19.1251 18.6442 19.1905C18.4851 19.2559 18.3099 19.2731 18.141 19.2398C17.972 19.2066 17.8167 19.1243 17.6949 19.0036C17.573 18.8828 17.4899 18.7289 17.4562 18.5614C17.4224 18.3938 17.4395 18.2201 17.5053 18.0621C17.571 17.9042 17.6825 17.7692 17.8257 17.6741C17.9688 17.5791 18.1371 17.5282 18.3094 17.528C18.4239 17.5279 18.5373 17.5501 18.6431 17.5935C18.7489 17.6369 18.8451 17.7005 18.9261 17.7808C19.0071 17.8611 19.0714 17.9564 19.1153 18.0613C19.1591 18.1662 19.1817 18.2787 19.1817 18.3922Z" stroke="#BFBFBF" stroke-width="2" stroke-linecap="round" stroke-linejoin="round"/>
<path d="M1.74878 1.10184L5.23475 1.10206L7.57209 12.678C7.65179 13.0759 7.87 13.4334 8.18854 13.688C8.50709 13.9425 8.9057 14.0778 9.31465 14.0703L17.7864 14.0709C18.1955 14.0787 18.5944 13.9435 18.9131 13.689C19.2318 13.4345 19.4501 13.0768 19.5298 12.6787L20.9235 5.42503L6.10733 5.42409" stroke="#BFBFBF" stroke-width="2" stroke-linecap="round" stroke-linejoin="round"/>
</svg>
