<svg width="25" height="24" viewBox="0 0 25 24" fill="none" xmlns="http://www.w3.org/2000/svg">
<path opacity="0.2" d="M21.7591 0.194444C23.431 0.194444 24.7313 1.54123 24.7313 3.16667V16.4488C24.7313 18.0278 23.3845 19.3746 21.7591 19.3746H15.0716L9.26649 23.74C8.89497 23.9722 8.38411 23.74 8.38411 23.2756V19.421H3.92578C2.25391 19.421 0.953559 18.1207 0.953559 16.4952V3.16667C0.953559 1.54123 2.25391 0.194444 3.92578 0.194444H21.7591ZM23.2917 16.5417V3.16667C23.2917 2.37717 22.5951 1.68055 21.8056 1.68055H3.97222C3.13628 1.68055 2.48611 2.37717 2.48611 3.16667V16.5417C2.48611 17.3776 3.13628 18.0278 3.97222 18.0278H9.17361C9.54514 18.0278 9.91667 18.3993 9.91667 18.7708V21.5573L14.1892 18.3529C14.4679 18.1671 14.7465 18.0278 15.0716 18.0278H21.8056C22.5951 18.0278 23.2917 17.3776 23.2917 16.5417ZM13.6319 11.3403C14.0035 11.3403 14.3286 11.7118 14.3286 12.0833C14.3286 12.5013 14.0035 12.8264 13.6319 12.8264H7.6875C7.26953 12.8264 6.898 12.5013 6.94444 12.0833C6.94444 11.7118 7.26953 11.3403 7.6875 11.3403H13.6319ZM18.0903 6.88194C18.4618 6.88194 18.7869 7.25347 18.7869 7.625C18.7869 8.04297 18.4618 8.36806 18.0903 8.36806H7.6875C7.26953 8.36806 6.898 8.04297 6.94444 7.625C6.94444 7.25347 7.26953 6.88194 7.6875 6.88194H18.0903Z" fill="#3B4C68"/>
</svg>
