<svg width="11" height="13" viewBox="0 0 11 13" fill="none" xmlns="http://www.w3.org/2000/svg">
<path fill-rule="evenodd" clip-rule="evenodd" d="M0.341003 5.81139C0.341003 3.09648 2.60972 0.90213 5.35395 0.90213C8.10593 0.90213 10.3746 3.09648 10.3746 5.81139C10.3746 7.17946 9.8771 8.44957 9.05817 9.52609C8.15473 10.7136 7.04121 11.7482 5.78782 12.5603C5.50096 12.748 5.24207 12.7621 4.92723 12.5603C3.6667 11.7482 2.55318 10.7136 1.65748 9.52609C0.837954 8.44957 0.341003 7.17946 0.341003 5.81139ZM3.70182 5.96424C3.70182 6.87373 4.44398 7.58905 5.35396 7.58905C6.26454 7.58905 7.01383 6.87373 7.01383 5.96424C7.01383 5.06183 6.26454 4.31169 5.35396 4.31169C4.44398 4.31169 3.70182 5.06183 3.70182 5.96424Z" fill="#192252"/>
</svg>
