<svg width="26" height="26" viewBox="0 0 26 26" fill="none" xmlns="http://www.w3.org/2000/svg">
<path d="M13.0833 20.8606C17.3786 20.8606 20.8606 17.3786 20.8606 13.0833C20.8606 8.78802 17.3786 5.30601 13.0833 5.30601C8.78802 5.30601 5.30601 8.78802 5.30601 13.0833C5.30601 17.3786 8.78802 20.8606 13.0833 20.8606Z" stroke="white" stroke-width="3" stroke-linecap="round" stroke-linejoin="round"/>
<path d="M13.0833 16.1942C14.8014 16.1942 16.1942 14.8014 16.1942 13.0833C16.1942 11.3652 14.8014 9.97238 13.0833 9.97238C11.3652 9.97238 9.97238 11.3652 9.97238 13.0833C9.97238 14.8014 11.3652 16.1942 13.0833 16.1942Z" stroke="white" stroke-width="3" stroke-linecap="round" stroke-linejoin="round"/>
<path d="M13.0833 4.78752V2.71358" stroke="white" stroke-width="3" stroke-linecap="round" stroke-linejoin="round"/>
<path d="M4.78752 13.0833H2.71358" stroke="white" stroke-width="3" stroke-linecap="round" stroke-linejoin="round"/>
<path d="M13.0833 21.3791V23.453" stroke="white" stroke-width="3" stroke-linecap="round" stroke-linejoin="round"/>
<path d="M21.3791 13.0833H23.453" stroke="white" stroke-width="3" stroke-linecap="round" stroke-linejoin="round"/>
</svg>
