<svg width="20" height="20" viewBox="0 0 20 20" fill="none" xmlns="http://www.w3.org/2000/svg">
<path d="M14.1242 1.70826C13.0233 0.606641 11.5583 0 10 0C8.44167 0 6.97667 0.606641 5.87501 1.70826C3.60084 3.98233 3.60084 7.68301 5.88167 9.96375L7.96084 11.997C8.52334 12.547 9.26167 12.822 10 12.822C10.7383 12.822 11.4767 12.547 12.0392 11.997L14.1242 9.95709C15.2258 8.85546 15.8333 7.39053 15.8333 5.83226C15.8333 4.27399 15.2258 2.81072 14.1242 1.70826ZM10 8.32465C8.61917 8.32465 7.5 7.20553 7.5 5.82476C7.5 4.44398 8.61917 3.32486 10 3.32486C11.3808 3.32486 12.5 4.44398 12.5 5.82476C12.5 7.20553 11.3808 8.32465 10 8.32465ZM20 13.9678C20.0017 14.2627 19.8475 14.5361 19.5958 14.6869L11.3783 19.6175C10.9533 19.8725 10.4767 20 10.0008 20C9.525 20 9.0475 19.8725 8.62333 19.6175L0.40418 14.6869C0.15168 14.5352 -0.00165321 14.2619 1.34495e-05 13.9678C0.00168011 13.6736 0.158347 13.4019 0.412513 13.2536L4.45834 10.8854C4.54167 10.977 4.62751 11.0679 4.71584 11.1562L6.795 13.1886C7.65167 14.0269 8.79083 14.4894 10 14.4894C11.2092 14.4894 12.3475 14.0269 13.205 13.1886L15.3033 11.1362C15.385 11.0545 15.465 10.9704 15.5425 10.8854L19.5875 13.2528C19.8417 13.4019 19.9983 13.6744 20 13.9678Z" fill="white"/>
</svg>
