<svg width="8" height="7" viewBox="0 0 8 7" fill="none" xmlns="http://www.w3.org/2000/svg">
<path fill-rule="evenodd" clip-rule="evenodd" d="M0.789993 0.289992C0.895458 0.184655 1.03843 0.125487 1.18749 0.125487C1.33656 0.125487 1.47952 0.184655 1.58499 0.289992L3.99999 2.70499L6.41499 0.289992C6.46652 0.234725 6.52862 0.1904 6.59762 0.159657C6.66662 0.128915 6.74109 0.112385 6.81662 0.11105C6.89214 0.109715 6.96714 0.123612 7.03719 0.151902C7.10724 0.180192 7.17084 0.222297 7.22424 0.275712C7.27772 0.329127 7.31979 0.392757 7.34807 0.462792C7.37634 0.532835 7.39029 0.607857 7.38894 0.683382C7.38759 0.758915 7.37109 0.833397 7.34034 0.902397C7.30959 0.971397 7.26527 1.0335 7.20999 1.08499L4.79499 3.49999L7.20999 5.91499C7.26527 5.96652 7.30959 6.02862 7.34034 6.09762C7.37109 6.16662 7.38759 6.24109 7.38894 6.31662C7.39029 6.39214 7.37634 6.46714 7.34807 6.53719C7.31979 6.60724 7.27772 6.67084 7.22424 6.72424C7.17084 6.77772 7.10724 6.81979 7.03719 6.84807C6.96714 6.87634 6.89214 6.89029 6.81662 6.88894C6.74109 6.88759 6.66662 6.87109 6.59762 6.84034C6.52862 6.80959 6.46652 6.76527 6.41499 6.70999L3.99999 4.29499L1.58499 6.70999C1.47836 6.80937 1.33732 6.86344 1.1916 6.86089C1.04587 6.85827 0.906836 6.79924 0.803771 6.69619C0.700713 6.59314 0.641681 6.45409 0.639108 6.30837C0.636536 6.16264 0.690633 6.02164 0.789993 5.91499L3.20499 3.49999L0.789993 1.08499C0.684656 0.979527 0.625488 0.836555 0.625488 0.687492C0.625488 0.53843 0.684656 0.395465 0.789993 0.289992Z" fill="#424F7B"/>
</svg>
