<svg width="10" height="7" viewBox="0 0 10 7" fill="none" xmlns="http://www.w3.org/2000/svg">
<path d="M9.7194 0.812962C9.54166 0.63628 9.30123 0.537109 9.05062 0.537109C8.80001 0.537109 8.55958 0.63628 8.38184 0.812962L4.97628 4.17109L1.61816 0.812962C1.44042 0.63628 1.19999 0.537109 0.94938 0.537109C0.698767 0.537109 0.458337 0.63628 0.280601 0.812962C0.191688 0.901149 0.121116 1.00607 0.0729554 1.12167C0.0247951 1.23726 0 1.36125 0 1.48648C0 1.61171 0.0247951 1.7357 0.0729554 1.8513C0.121116 1.9669 0.191688 2.07182 0.280601 2.16001L4.30276 6.18217C4.39095 6.27108 4.49587 6.34165 4.61147 6.38981C4.72706 6.43797 4.85105 6.46277 4.97628 6.46277C5.10151 6.46277 5.2255 6.43797 5.3411 6.38981C5.4567 6.34165 5.56162 6.27108 5.64981 6.18217L9.7194 2.16001C9.80831 2.07182 9.87888 1.9669 9.92704 1.8513C9.9752 1.7357 10 1.61171 10 1.48648C10 1.36125 9.9752 1.23726 9.92704 1.12167C9.87888 1.00607 9.80831 0.901149 9.7194 0.812962Z" fill="#818AF9"/>
</svg>
