<svg width="17" height="18" viewBox="0 0 17 18" fill="none" xmlns="http://www.w3.org/2000/svg">
<g clip-path="url(#clip0_400_2624)">
<path d="M8.34373 2.39453H3.1134C2.71707 2.39453 2.33696 2.55197 2.05671 2.83223C1.77646 3.11248 1.61902 3.49258 1.61902 3.88891V14.3488C1.61902 14.7451 1.77646 15.1252 2.05671 15.4055C2.33696 15.6857 2.71707 15.8432 3.1134 15.8432H13.5733C13.9696 15.8432 14.3497 15.6857 14.6299 15.4055C14.9102 15.1252 15.0676 14.7451 15.0676 14.3488V9.11925" stroke="#00C2BE" stroke-width="2" stroke-linecap="round" stroke-linejoin="round"/>
<path d="M13.9473 1.27348C14.245 0.978523 14.6474 0.813479 15.0665 0.814457C15.4856 0.815435 15.8873 0.982355 16.1836 1.2787C16.48 1.57505 16.6469 1.9767 16.6479 2.3958C16.6488 2.8149 16.4838 3.21733 16.1888 3.51506L9.09094 10.613L6.10217 11.3602L6.84936 8.37139L13.9473 1.27348Z" stroke="#00C2BE" stroke-width="2" stroke-linecap="round" stroke-linejoin="round"/>
</g>
<defs>
<clipPath id="clip0_400_2624">
<rect width="17" height="17.8095" fill="white"/>
</clipPath>
</defs>
</svg>
