<svg width="12" height="9" viewBox="0 0 12 9" fill="none" xmlns="http://www.w3.org/2000/svg">
<path d="M9.87812 4.59812C11.0517 3.6341 11.8125 2.258 12.0048 0.751449C12.0153 0.663902 12.0084 0.575142 11.9846 0.490238C11.9609 0.405334 11.9206 0.325948 11.8661 0.256614C11.8116 0.187279 11.744 0.129354 11.6671 0.0861446C11.5903 0.0429354 11.5057 0.0152886 11.4181 0.00478286C11.3306 -0.00572289 11.2418 0.00111815 11.1569 0.0249152C11.072 0.0487123 10.9926 0.0889993 10.9233 0.143476C10.8539 0.197953 10.796 0.265554 10.7528 0.342417C10.7096 0.41928 10.682 0.503902 10.6714 0.59145C10.5121 1.71564 9.95223 2.74451 9.09486 3.4889C8.23748 4.23329 7.14021 4.64317 6.00478 4.64317C4.86935 4.64317 3.77208 4.23329 2.91471 3.4889C2.05734 2.74451 1.4975 1.71564 1.33812 0.59145C1.32761 0.503902 1.29996 0.41928 1.25675 0.342417C1.21355 0.265554 1.15562 0.197953 1.08629 0.143476C1.01695 0.0889993 0.937566 0.0487123 0.852661 0.0249152C0.767757 0.00111815 0.678998 -0.00572289 0.59145 0.00478286C0.503902 0.0152886 0.41928 0.0429354 0.342417 0.0861446C0.265554 0.129354 0.197954 0.187279 0.143477 0.256614C0.0889995 0.325948 0.0487122 0.405334 0.0249151 0.490238C0.00111803 0.575142 -0.00572286 0.663902 0.00478289 0.751449C0.19534 2.25701 0.953666 3.63297 2.12478 4.59812L0.59145 6.14478C0.482232 6.27232 0.425161 6.43637 0.431642 6.60415C0.438123 6.77194 0.507678 6.9311 0.626407 7.04983C0.745137 7.16856 0.904297 7.23811 1.07208 7.24459C1.23986 7.25107 1.40392 7.194 1.53145 7.08478L3.27145 5.35145C3.91799 5.67817 4.61802 5.88592 5.33812 5.96478V8.33812C5.33812 8.51493 5.40835 8.6845 5.53338 8.80952C5.6584 8.93455 5.82797 9.00478 6.00478 9.00478C6.18159 9.00478 6.35116 8.93455 6.47619 8.80952C6.60121 8.6845 6.67145 8.51493 6.67145 8.33812V5.96478C7.39154 5.88592 8.09158 5.67817 8.73812 5.35145L10.4781 7.08478C10.6056 7.194 10.7697 7.25107 10.9375 7.24459C11.1053 7.23811 11.2644 7.16856 11.3832 7.04983C11.5019 6.9311 11.5714 6.77194 11.5779 6.60415C11.5844 6.43637 11.5273 6.27232 11.4181 6.14478L9.87812 4.59812Z" fill="#041E5E"/>
</svg>
