<svg width="68" height="62" viewBox="0 0 68 62" fill="none" xmlns="http://www.w3.org/2000/svg">
<path d="M38.0225 54.125C38.2156 53.7489 38.7115 53.5838 39.1309 53.7568C39.5502 53.9301 39.7341 54.3757 39.541 54.752C38.4531 56.871 37.1672 58.9053 35.6982 60.8311C35.4375 61.1727 34.9171 61.26 34.5361 61.0264C34.1551 60.7924 34.0576 60.3252 34.3184 59.9834C35.7342 58.1273 36.974 56.1672 38.0225 54.125ZM36.6387 46.7412C36.7572 46.341 37.2149 46.1028 37.6611 46.209C38.1073 46.3152 38.3732 46.7257 38.2549 47.126C36.7989 52.051 34.235 56.6665 30.7373 60.6816C30.453 61.0079 29.9272 61.0656 29.5635 60.8105C29.1996 60.5555 29.1356 60.0842 29.4199 59.7578C32.7789 55.902 35.2408 51.4697 36.6387 46.7412ZM31.3574 19.3848C38.4851 18.0955 45.4279 22.2336 46.8652 28.6279L47.001 29.2314C49.247 40.0217 47.0443 50.9561 40.9648 60.2529C40.7313 60.6101 40.2195 60.7298 39.8213 60.5205C39.4231 60.311 39.289 59.8514 39.5225 59.4941C45.5096 50.3385 47.6063 39.5435 45.2197 28.9268L45.1445 28.5889C43.7267 23.1983 37.7844 19.7526 31.6875 20.8555C25.7058 21.9376 21.753 27.0035 22.5703 32.3525L22.7148 32.9971C24.5514 41.1692 21.2972 49.4596 14.3984 54.8193C14.0494 55.0902 13.5219 55.0561 13.2197 54.7432C12.9175 54.4302 12.955 53.9568 13.3037 53.6855C19.5495 48.8331 22.5989 41.4123 21.2236 34.0107L21.0537 33.2969C19.6161 26.9025 24.2292 20.6742 31.3574 19.3848ZM28.2275 54.8945C28.4752 54.5451 28.9912 54.442 29.3809 54.6641C29.7706 54.8862 29.8863 55.3496 29.6387 55.6992C28.5856 57.1859 27.4053 58.5977 26.1094 59.9209C25.8047 60.2319 25.2765 60.2624 24.9297 59.9893C24.5828 59.7159 24.5487 59.2418 24.8535 58.9307C26.0924 57.6658 27.2208 56.3158 28.2275 54.8945ZM30.5469 15.7783C39.8959 14.0873 49.0013 19.5148 50.8838 27.9023C53.2655 38.4986 51.6618 49.2707 46.4922 58.79C46.2899 59.1623 45.7891 59.3171 45.374 59.1357C44.959 58.9543 44.7871 58.5052 44.9893 58.1328C49.9996 48.9067 51.5527 38.4692 49.2441 28.1982C47.5437 20.6231 39.3204 15.7208 30.877 17.248C22.4335 18.7755 16.9692 26.1531 18.6709 33.7256C20.2722 40.759 17.3516 47.8958 11.2637 52.3691C10.9065 52.6316 10.3795 52.5851 10.0869 52.2646C9.79438 51.9442 9.84691 51.4714 10.2041 51.209C15.8171 47.0847 18.5083 40.5083 17.0322 34.0244C15.1473 25.6378 21.1979 17.4695 30.5469 15.7783ZM32.9785 26.5977C35.6687 26.1111 38.286 27.6757 38.8115 30.0859C39.8379 34.6517 39.912 39.2715 39.0654 43.7686C38.9885 44.177 38.5569 44.4528 38.1016 44.3838C37.6463 44.3148 37.3401 43.927 37.417 43.5186C38.2296 39.2019 38.1576 34.7672 37.1709 30.3779C36.8226 28.7808 35.0909 27.7459 33.3086 28.0684C31.5275 28.3908 30.3746 29.9477 30.7334 31.5439C32.9902 41.4513 29.5681 51.5305 21.835 58.6445C21.5126 58.9411 20.9829 58.9474 20.6523 58.6582C20.3218 58.369 20.3153 57.8942 20.6377 57.5977C27.9885 50.8355 31.2399 41.2586 29.0947 31.8418C28.5531 29.4316 30.2921 27.0838 32.9785 26.5977ZM20.5557 51.9404C20.8216 51.6022 21.3424 51.5215 21.7197 51.7598C22.0972 51.9982 22.1886 52.466 21.9229 52.8047C20.7519 54.2964 19.4128 55.6775 17.9277 56.9238C17.5905 57.2067 17.0615 57.1901 16.7461 56.8877C16.4308 56.5852 16.4481 56.1111 16.7852 55.8281C18.1865 54.652 19.4505 53.3483 20.5557 51.9404ZM54.9629 42.5938C55.4217 42.6405 55.7513 43.0123 55.6992 43.4238C55.1467 47.7914 53.9791 52.0705 52.2324 56.167C52.0675 56.5539 51.5836 56.7476 51.1523 56.5996C50.7214 56.4515 50.506 56.0186 50.6709 55.6318C52.3676 51.6528 53.5015 47.4966 54.0381 43.2549C54.0901 42.8433 54.5041 42.5471 54.9629 42.5938ZM33.8027 30.2266C34.2552 30.1449 34.6959 30.4075 34.7871 30.8135C36.5406 38.6148 35.1947 46.5478 31.1123 53.4297C30.8954 53.7953 30.3891 53.9338 29.9814 53.7393C29.5739 53.5447 29.4188 53.0903 29.6357 52.7246C33.5377 46.1468 34.8245 38.5678 33.1484 31.1104C33.0572 30.7043 33.3501 30.3084 33.8027 30.2266ZM32.168 22.9912C37.0773 22.1031 41.8563 24.9552 42.835 29.3584C44.5987 37.2057 43.7921 45.1749 40.6191 52.4746C40.4514 52.8604 39.9672 53.0507 39.5371 52.9004C39.1069 52.7499 38.8938 52.3156 39.0615 51.9297C42.119 44.8957 42.8957 37.2184 41.1953 29.6533C40.3972 26.0625 36.5012 23.7376 32.498 24.4619C32.0456 24.5436 31.6051 24.2808 31.5137 23.875C31.4224 23.469 31.7153 23.0731 32.168 22.9912ZM59.1006 32.6689C59.5609 32.6379 59.9623 32.9474 59.9971 33.3604C60.525 39.6341 59.8656 45.8886 58.0771 51.9062C57.9582 52.3065 57.4999 52.5452 57.0537 52.4385C56.6077 52.3317 56.3431 51.9206 56.4619 51.5205C58.2023 45.6645 58.8429 39.5779 58.3291 33.4727C58.2944 33.0597 58.6402 32.7001 59.1006 32.6689ZM29.0508 24.124C29.4389 23.8997 29.956 24.0004 30.2061 24.3486C30.456 24.6968 30.3442 25.1605 29.9561 25.3848C27.4194 26.8509 26.1068 29.5746 26.7129 32.2705C28.1791 38.6744 26.9493 45.1989 23.377 50.7607C23.1464 51.1196 22.6345 51.2429 22.2344 51.0361C21.8346 50.8293 21.6973 50.3705 21.9277 50.0117C25.2983 44.7641 26.458 38.6128 25.0742 32.5693C24.3303 29.2606 25.9402 25.9217 29.0508 24.124ZM14.0078 35.3047C14.4669 35.2633 14.8763 35.5638 14.9229 35.9756C15.513 41.219 13.0724 46.3418 8.53711 49.6104C8.17714 49.8698 7.65051 49.818 7.36133 49.4951C7.07243 49.1723 7.12964 48.7008 7.48926 48.4414C11.5868 45.4885 13.7924 40.8609 13.2598 36.127C13.2134 35.7148 13.5484 35.3463 14.0078 35.3047ZM24.7812 9.64551C25.2121 9.49674 25.6964 9.68876 25.8623 10.0752C26.0282 10.4618 25.8128 10.8961 25.3818 11.0449C14.6319 14.7566 8.32828 24.9406 10.6299 35.1807C11.6022 39.4454 9.8755 43.7761 6.23535 46.543C5.88307 46.8107 5.35513 46.772 5.05664 46.4561C4.75815 46.14 4.80205 45.6662 5.1543 45.3984C8.33334 42.982 9.84006 39.2034 8.99121 35.4795C6.52735 24.5175 13.2735 13.6189 24.7812 9.64551ZM63.4102 35.5391C63.8715 35.5302 64.2534 35.8586 64.2637 36.2725C64.334 39.1638 64.1687 42.0463 63.7725 44.9014C63.7154 45.3124 63.2981 45.6049 62.8398 45.5537C62.3818 45.5025 62.0564 45.1277 62.1133 44.7168C62.4995 41.9338 62.6604 39.124 62.5918 36.3057C62.5817 35.8915 62.9485 35.5481 63.4102 35.5391ZM5.29883 24.4004C5.41334 23.9991 5.86908 23.7566 6.31641 23.8594C6.76367 23.9621 7.03345 24.3712 6.91895 24.7725C5.88809 28.385 5.76873 32.1714 6.6084 35.9072C7.20226 38.5015 6.34558 41.1437 4.37207 43.0537C4.05816 43.3574 3.52903 43.3753 3.19043 43.0938C2.85219 42.8122 2.83205 42.3379 3.14551 42.0342C4.75652 40.475 5.45427 38.3228 4.96973 36.2061C4.07952 32.2453 4.20592 28.2303 5.29883 24.4004ZM49.0508 18.4463C49.402 18.1775 49.9298 18.2152 50.2295 18.5303C52.5656 20.9865 54.1791 23.9391 54.9062 27.1738C55.9371 31.7576 56.2788 36.3837 55.9443 40.9639C55.9141 41.3772 55.5164 41.6902 55.0557 41.6631C54.5951 41.636 54.2464 41.2793 54.2764 40.8662C54.6012 36.4178 54.2692 31.9235 53.2676 27.4697C52.5969 24.4868 51.1097 21.7672 48.957 19.5039C48.6576 19.1888 48.6996 18.7151 49.0508 18.4463ZM2.55762 36.4941C2.57823 36.5386 2.59444 36.5858 2.60547 36.6348C2.69885 37.0495 2.80137 37.4575 2.91211 37.8594C3.02292 38.2615 2.74903 38.6682 2.30078 38.7676C1.8528 38.8666 1.39989 38.6215 1.28906 38.2197C1.18648 37.8475 1.09217 37.47 1.00391 37.0879C1.1585 37.4035 1.54147 37.5912 1.93359 37.5205C2.38617 37.4386 2.67904 37.0437 2.58789 36.6377C2.57718 36.59 2.56805 36.5418 2.55762 36.4941ZM22.4189 2.58008C22.8528 2.43874 23.3325 2.6401 23.4902 3.0293C23.6478 3.4185 23.424 3.84869 22.9902 3.99023C8.26262 8.79074 -0.490226 22.5747 2.55762 36.4941C2.40734 36.1703 2.01896 35.9758 1.62109 36.0479C1.1687 36.13 0.875443 36.5257 0.966797 36.9316C0.978565 36.9839 0.991874 37.0358 1.00391 37.0879C0.980155 37.0394 0.96137 36.9877 0.949219 36.9336C-2.35419 22.2357 6.86623 7.64953 22.4189 2.58008ZM29.7354 12.1709C36.237 10.9948 42.8501 12.5829 47.8076 16.3623C48.1595 16.6305 48.2023 17.1043 47.9033 17.4199C47.6044 17.7352 47.0773 17.7738 46.7256 17.5059C42.1543 14.0208 36.0606 12.5574 30.0664 13.6416C20.0918 15.4459 13.3154 23.7635 14.3652 32.7773C14.4131 33.1892 14.0793 33.5575 13.6201 33.6006C13.1609 33.6435 12.7501 33.3445 12.7021 32.9326C11.5632 23.1516 18.914 14.1284 29.7354 12.1709ZM57.3037 15.8975C57.686 15.6652 58.2059 15.7557 58.4648 16.0986C60.6406 18.9809 62.1704 22.2329 62.9561 25.7188C63.452 27.9252 63.8082 30.1419 64.0254 32.3613C64.0658 32.7739 63.7254 33.1375 63.2656 33.1738C62.8058 33.21 62.4 32.9056 62.3594 32.4932C62.1476 30.3291 61.8 28.1671 61.3164 26.0156C60.5749 22.7257 59.1331 19.6579 57.0811 16.9395C56.8222 16.5965 56.9216 16.1298 57.3037 15.8975ZM28.9248 8.56445C42.714 6.07049 56.1462 14.0759 58.9316 26.4473C59.1962 27.6242 59.4187 28.8043 59.5986 29.9863C59.661 30.3967 59.3403 30.775 58.8828 30.8311C58.4255 30.8869 58.004 30.5996 57.9414 30.1895C57.7663 29.0389 57.5504 27.8897 57.293 26.7441C54.6904 15.1849 42.1398 7.70504 29.2559 10.0352C28.8033 10.117 28.3618 9.85423 28.2705 9.44824C28.1793 9.04228 28.4723 8.64642 28.9248 8.56445ZM66.9297 24.834C66.9538 24.8829 66.9731 24.9347 66.9854 24.9893C67.3569 26.6425 67.5737 28.3069 67.6367 29.9697C67.6524 30.3837 67.2906 30.731 66.8291 30.7451C66.3679 30.7589 65.9815 30.4343 65.9658 30.0205C65.9077 28.4878 65.71 26.9541 65.376 25.4287C65.5259 25.753 65.9153 25.9478 66.3135 25.876C66.7661 25.7941 67.059 25.3982 66.9678 24.9922C66.9559 24.9393 66.9419 24.8868 66.9297 24.834ZM27.3037 1.35156C45.4754 -1.93521 63.1747 8.56978 66.9297 24.834C66.7745 24.5194 66.3924 24.3317 66.001 24.4023C65.5486 24.4843 65.2555 24.8802 65.3467 25.2861C65.3573 25.3335 65.3656 25.3814 65.376 25.4287C65.3555 25.3845 65.3391 25.3378 65.3281 25.2891C61.8346 9.74646 44.9593 -0.311585 27.6338 2.82227C27.1815 2.90378 26.7409 2.64094 26.6494 2.23535C26.5582 1.82943 26.8513 1.43357 27.3037 1.35156ZM28.1143 4.95801C38.3328 3.10973 48.708 6.21001 55.668 12.9414C55.9816 13.2451 55.9614 13.7194 55.623 14.001C55.2845 14.2825 54.7554 14.2646 54.4414 13.9609C47.8735 7.60882 38.0868 4.68488 28.4453 6.42871C19.3756 8.06922 11.9533 13.5618 8.34473 21.0361C8.16124 21.4162 7.6688 21.5903 7.24512 21.4258C6.8214 21.2612 6.62606 20.8195 6.80957 20.4395C10.6335 12.5193 18.5023 6.69666 28.1143 4.95801Z" fill="url(#paint0_linear_2034_4682)"/>
<defs>
<linearGradient id="paint0_linear_2034_4682" x1="33.9595" y1="91.3602" x2="94.0098" y2="24.4011" gradientUnits="userSpaceOnUse">
<stop stop-color="#5B65FF"/>
<stop offset="1" stop-color="#31ECC3"/>
</linearGradient>
</defs>
</svg>
