<svg width="24" height="23" viewBox="0 0 24 23" fill="none" xmlns="http://www.w3.org/2000/svg">
<path fill-rule="evenodd" clip-rule="evenodd" d="M21.592 18.0491C21.1106 18.8564 20.5325 19.594 19.8087 20.2076C15.7853 17.0895 16.5477 17.6909 16.1784 17.3626C17.4954 16.3624 17.9957 15.4285 18.3745 14.1732C18.4505 13.922 18.427 13.8238 18.1144 13.8265C16.2528 13.8422 14.3912 13.8341 12.5297 13.8341C12.1354 13.8341 12.135 13.8338 12.135 13.428C12.135 12.1723 12.1412 10.9166 12.1296 9.66134C12.1273 9.41934 12.1701 9.32614 12.4441 9.32691C15.8778 9.33688 19.3115 9.33458 22.7452 9.32998C22.9306 9.32959 23.047 9.3434 23.0793 9.56776C23.5064 12.5562 23.1637 15.4116 21.592 18.0491Z" fill="#6689C9"/>
<path fill-rule="evenodd" clip-rule="evenodd" d="M19.8087 20.2076C18.5754 21.3731 17.1193 22.149 15.4808 22.5613C11.6186 23.5328 8.05846 22.9188 4.89687 20.4362C3.58992 19.4099 2.56201 18.1419 1.83704 16.6412C3.09504 15.6693 4.35266 14.6974 5.61067 13.7256C5.95677 14.6004 6.3869 15.4273 7.02593 16.1299C9.62365 18.9845 13.3641 19.0743 16.1781 17.3626C16.5303 17.6752 15.7792 17.0845 19.8087 20.2076Z" fill="#4DB74B"/>
<path fill-rule="evenodd" clip-rule="evenodd" d="M5.61103 13.7258C4.35302 14.6976 3.0954 15.6695 1.8374 16.6414C0.209774 13.6299 0.175087 9.40072 1.84703 6.34399C6.02381 9.54531 5.3898 9.06705 5.63955 9.22966C5.13504 10.7254 5.16009 12.2243 5.61103 13.7258Z" fill="#FFCD05"/>
<path fill-rule="evenodd" clip-rule="evenodd" d="M19.6961 3.20694C16.4644 6.35609 16.7122 6.33346 16.4779 6.11984C13.2331 3.16168 7.45025 4.28465 5.63956 9.22948C5.39173 9.06802 6.04232 9.5597 1.84705 6.34343C3.01486 3.7876 6.03615 0.832512 10.2068 0.169774C13.7526 -0.394013 16.9261 0.438245 19.6684 2.78812C19.8414 2.93655 19.8842 3.02323 19.6961 3.20694Z" fill="#E22F31"/>
</svg>
