<svg width="24" height="23" viewBox="0 0 24 23" fill="none" xmlns="http://www.w3.org/2000/svg">
<path opacity="0.2" d="M20.8056 4.65278C22.431 4.65278 23.7778 5.99957 23.7778 7.625V19.5139C23.7778 21.1858 22.431 22.4861 20.8056 22.4861H2.97222C1.30035 22.4861 0 21.1858 0 19.5139V7.625C0 5.99957 1.30035 4.65278 2.97222 4.65278H5.94444V2.42361C5.94444 1.21615 6.91971 0.194444 8.17361 0.194444H15.6042C16.8116 0.194444 17.8333 1.21615 17.8333 2.42361V4.65278H20.8056ZM7.43056 2.42361V4.65278H16.3472V2.42361C16.3472 2.05208 15.9757 1.68055 15.6042 1.68055H8.17361C7.75564 1.68055 7.43056 2.05208 7.43056 2.42361ZM22.2917 19.5139V13.5694H15.6042V16.5417C15.6042 16.9596 15.2326 17.2847 14.8611 17.2847H8.91667C8.4987 17.2847 8.17361 16.9596 8.17361 16.5417V13.5694H1.48611V19.5139C1.48611 20.3498 2.13628 21 2.97222 21H20.8056C21.5951 21 22.2917 20.3498 22.2917 19.5139ZM9.65972 15.7986H14.1181V13.5694H9.65972V15.7986ZM22.2917 12.0833V7.625C22.2917 6.8355 21.5951 6.13889 20.8056 6.13889H2.97222C2.13628 6.13889 1.48611 6.8355 1.48611 7.625V12.0833H22.2917Z" fill="#3B4C68"/>
</svg>
