<svg width="23" height="21" viewBox="0 0 23 21" fill="none" xmlns="http://www.w3.org/2000/svg">
<path d="M12.604 0.696094C12.604 0.375651 12.9245 0.0552084 13.2449 0.0552084C13.6054 0.0552084 13.9258 0.375651 13.9258 0.696094V1.37703C17.1303 1.69748 19.6938 4.42124 19.6938 7.74583V8.94749C19.6938 10.6699 20.3748 12.3522 21.6165 13.5939L21.7366 13.7141C22.0571 14.0345 22.2574 14.4751 22.2574 14.9558C22.2574 15.9572 21.4562 16.7182 20.4549 16.7182H6.075C5.07361 16.7182 4.31256 15.9572 4.31256 14.9558C4.31256 14.4751 4.47278 14.0345 4.79323 13.7141L4.91339 13.5939C6.15511 12.3522 6.8761 10.6699 6.8761 8.94749V7.74583C6.8761 4.42124 9.39959 1.69748 12.6441 1.37703L12.604 0.696094ZM13.2449 2.61875C10.441 2.61875 8.11782 4.94196 8.11782 7.74583V8.94749C8.11782 11.0304 7.31671 13.0331 5.83466 14.5152L5.7145 14.5953C5.63439 14.7155 5.55428 14.8356 5.55428 14.9558C5.55428 15.2362 5.79461 15.4365 6.075 15.4365H20.4549C20.7352 15.4365 20.9756 15.2362 20.9756 14.9558C20.9756 14.8356 20.8955 14.7155 20.8154 14.5953L20.6952 14.5152C19.2131 13.0331 18.412 11.0304 18.412 8.94749V7.74583C18.412 4.94196 16.0888 2.61875 13.2449 2.61875ZM13.2449 19.2818C13.8057 19.2818 14.2863 18.9613 14.4866 18.4406C14.6068 18.1202 14.9673 17.9199 15.2877 18.0401C15.6082 18.1602 15.8084 18.5207 15.6883 18.8812C15.3278 19.8826 14.3665 20.5635 13.2449 20.5635C12.1634 20.5635 11.2021 19.8826 10.8416 18.8812C10.7214 18.5207 10.9217 18.1602 11.2421 18.0401C11.5626 17.9199 11.9231 18.1202 12.0432 18.4406C12.2435 18.9613 12.7242 19.2818 13.2449 19.2818Z" fill="white"/>
<circle cx="5.175" cy="7.18757" r="4.52813" fill="#00C2BE" stroke="white" stroke-width="1.29375"/>
</svg>
