<svg width="31" height="28" viewBox="0 0 31 28" fill="none" xmlns="http://www.w3.org/2000/svg">
<path d="M16.8613 0.850961C16.8613 0.422275 17.29 -0.0064106 17.7187 -0.0064106C18.2009 -0.0064106 18.6296 0.422275 18.6296 0.850961V1.76192C22.9165 2.1906 26.346 5.83443 26.346 10.2821V11.8896C26.346 14.1938 27.2569 16.4444 28.9181 18.1056L29.0788 18.2663C29.5075 18.695 29.7755 19.2845 29.7755 19.9275C29.7755 21.2671 28.7037 22.2853 27.3641 22.2853H8.12682C6.78717 22.2853 5.76904 21.2671 5.76904 19.9275C5.76904 19.2845 5.98339 18.695 6.41207 18.2663L6.57283 18.1056C8.23399 16.4444 9.19853 14.1938 9.19853 11.8896V10.2821C9.19853 5.83443 12.5744 2.1906 16.9149 1.76192L16.8613 0.850961ZM17.7187 3.42308C13.9677 3.42308 10.8597 6.53105 10.8597 10.2821V11.8896C10.8597 14.6761 9.78797 17.3554 7.8053 19.338L7.64454 19.4452C7.53737 19.606 7.4302 19.7667 7.4302 19.9275C7.4302 20.3026 7.75172 20.5705 8.12682 20.5705H27.3641C27.7392 20.5705 28.0607 20.3026 28.0607 19.9275C28.0607 19.7667 27.9535 19.606 27.8464 19.4452L27.6856 19.338C25.7029 17.3554 24.6312 14.6761 24.6312 11.8896V10.2821C24.6312 6.53105 21.5232 3.42308 17.7187 3.42308ZM17.7187 25.7147C18.4689 25.7147 19.1119 25.2861 19.3798 24.5894C19.5406 24.1608 20.0228 23.8928 20.4515 24.0536C20.8802 24.2143 21.1481 24.6966 20.9874 25.1789C20.5051 26.5185 19.2191 27.4295 17.7187 27.4295C16.2718 27.4295 14.9858 26.5185 14.5035 25.1789C14.3428 24.6966 14.6107 24.2143 15.0394 24.0536C15.4681 23.8928 15.9503 24.1608 16.1111 24.5894C16.379 25.2861 17.022 25.7147 17.7187 25.7147Z" fill="#00C2BE"/>
<circle cx="6.92308" cy="9.61546" r="6.05769" fill="#00C2BE" stroke="white" stroke-width="1.73077"/>
</svg>
