<svg width="104" height="111" viewBox="0 0 104 111" fill="none" xmlns="http://www.w3.org/2000/svg">
<ellipse opacity="0.3" cx="50.5" cy="106.804" rx="50" ry="4" fill="#3B4C68"/>
<path d="M33.7836 1.55103H57.2162C61.1464 1.55103 64.0583 1.55221 66.3627 1.74048C68.66 1.92817 70.301 2.29941 71.6996 3.01196C74.221 4.29667 76.2714 6.34704 77.5561 8.86841C78.2686 10.267 78.6399 11.9081 78.8276 14.2053C79.0158 16.5097 79.017 19.4217 79.017 23.3518V85.3372C79.017 89.2673 79.0158 92.1793 78.8276 94.4836C78.6399 96.7811 78.2688 98.4228 77.5561 99.8215C76.2714 102.343 74.2209 104.392 71.6996 105.677C70.301 106.39 68.66 106.761 66.3627 106.948C64.0583 107.137 61.1464 107.138 57.2162 107.138H33.7836C29.8535 107.138 26.9415 107.137 24.6371 106.948C22.3399 106.761 20.6989 106.39 19.3002 105.677C16.779 104.392 14.7285 102.343 13.4438 99.8215C12.7311 98.4228 12.36 96.7811 12.1723 94.4836C11.9841 92.1794 11.9828 89.268 11.9828 85.3381V23.3518C11.9828 19.4216 11.984 16.5097 12.1723 14.2053C12.36 11.9081 12.7312 10.267 13.4438 8.86841C14.7285 6.34704 16.7789 4.29667 19.3002 3.01196C20.6989 2.29941 22.3399 1.92817 24.6371 1.74048C26.9415 1.55221 29.8535 1.55103 33.7836 1.55103Z" fill="white" stroke="#3B4C68" stroke-width="1.2"/>
<path d="M16.3832 23.3514C16.3832 15.5107 16.3832 11.5903 17.9091 8.59555C19.2514 5.96128 21.3931 3.81955 24.0274 2.47732C27.0221 0.951416 30.9425 0.951416 38.7832 0.951416H62.2166C70.0574 0.951416 73.9777 0.951416 76.9725 2.47732C79.6068 3.81955 81.7485 5.96128 83.0907 8.59555C84.6166 11.5903 84.6166 15.5107 84.6166 23.3514V85.3376C84.6166 93.1784 84.6166 97.0987 83.0907 100.094C81.7485 102.728 79.6068 104.87 76.9725 106.212C73.9777 107.738 70.0574 107.738 62.2166 107.738H38.7832C30.9425 107.738 27.0221 107.738 24.0274 106.212C21.3931 104.87 19.2514 102.728 17.9091 100.094C16.3832 97.0987 16.3832 93.1784 16.3832 85.3376V23.3514Z" fill="#818AF9" fill-opacity="0.1"/>
<g filter="url(#filter0_d_375_1145)">
<rect x="27.3414" y="79.7474" width="46.3172" height="12" rx="6" fill="white"/>
</g>
<g filter="url(#filter1_d_375_1145)">
<rect x="27.3414" y="63.7622" width="46.3172" height="12" rx="6" fill="white"/>
</g>
<circle cx="50.4999" cy="41.91" r="14" fill="#041E5E"/>
<path d="M50.5009 41.252C51.976 41.252 53.1718 40.0561 53.1718 38.581C53.1718 37.1059 51.976 35.91 50.5009 35.91C49.0257 35.91 47.8299 37.1059 47.8299 38.581C47.8299 40.0561 49.0257 41.252 50.5009 41.252Z" stroke="white" stroke-width="1.5" stroke-linecap="round" stroke-linejoin="round"/>
<path d="M55.6059 47.9101C55.6059 45.7272 53.3199 43.9575 50.4999 43.9575C47.68 43.9575 45.3939 45.7272 45.3939 47.9101" stroke="white" stroke-width="1.5" stroke-linecap="round" stroke-linejoin="round"/>
<path d="M38.7836 1.55103H62.2162C66.1464 1.55103 69.0583 1.55221 71.3627 1.74048C73.66 1.92817 75.301 2.29941 76.6996 3.01196C79.221 4.29667 81.2714 6.34704 82.5561 8.86841C83.2686 10.267 83.6399 11.9081 83.8276 14.2053C84.0158 16.5097 84.017 19.4217 84.017 23.3518V85.3372C84.017 89.2673 84.0158 92.1793 83.8276 94.4836C83.6399 96.7811 83.2688 98.4228 82.5561 99.8215C81.2714 102.343 79.2209 104.392 76.6996 105.677C75.301 106.39 73.66 106.761 71.3627 106.948C69.0583 107.137 66.1464 107.138 62.2162 107.138H38.7836C34.8535 107.138 31.9415 107.137 29.6371 106.948C27.3399 106.761 25.6989 106.39 24.3002 105.677C21.779 104.392 19.7285 102.343 18.4438 99.8215C17.7311 98.4228 17.36 96.7811 17.1723 94.4836C16.9841 92.1794 16.9828 89.268 16.9828 85.3381V23.3518C16.9828 19.4216 16.984 16.5097 17.1723 14.2053C17.36 11.9081 17.7312 10.267 18.4438 8.86841C19.7285 6.34704 21.7789 4.29667 24.3002 3.01196C25.6989 2.29941 27.3399 1.92817 29.6371 1.74048C31.9415 1.55221 34.8535 1.55103 38.7836 1.55103ZM38.7836 5.18188C34.7937 5.18188 32.0545 5.18426 29.9321 5.35767C27.8597 5.52701 26.7495 5.8378 25.9477 6.24634C24.1094 7.18301 22.6148 8.67758 21.6782 10.5159C21.2696 11.3177 20.9588 12.4279 20.7895 14.5002C20.6161 16.6226 20.6137 19.3619 20.6137 23.3518V85.3381C20.6137 89.3278 20.6161 92.0664 20.7895 94.1887C20.9588 96.2611 21.2696 97.3713 21.6782 98.1731C22.6148 100.011 24.1094 101.506 25.9477 102.443C26.7495 102.851 27.8597 103.162 29.9321 103.331C32.0545 103.505 34.7937 103.508 38.7836 103.508H62.2162C66.2061 103.508 68.9454 103.505 71.0678 103.331C73.1402 103.162 74.2504 102.851 75.0522 102.443C76.8905 101.506 78.3851 100.011 79.3217 98.1731C79.7303 97.3713 80.041 96.2611 80.2104 94.1887C80.3838 92.0663 80.3862 89.327 80.3862 85.3372V23.3518C80.3862 19.3619 80.3838 16.6226 80.2104 14.5002C80.041 12.4279 79.7303 11.3177 79.3217 10.5159C78.385 8.67758 76.8905 7.18301 75.0522 6.24634C74.2504 5.8378 73.1402 5.52701 71.0678 5.35767C68.9454 5.18426 66.2061 5.18188 62.2162 5.18188H38.7836Z" fill="white" stroke="#3B4C68" stroke-width="1.2"/>
<path fill-rule="evenodd" clip-rule="evenodd" d="M38.4999 13.425C38.4999 11.2159 40.2908 9.42505 42.4999 9.42505L58.4999 9.42505C60.7091 9.42505 62.4999 11.2159 62.4999 13.4251C62.4999 15.6342 60.7091 17.4251 58.4999 17.4251L42.4999 17.425C40.2908 17.425 38.4999 15.6342 38.4999 13.425Z" fill="#041E5E" fill-opacity="0.26" stroke="#3B4C68" stroke-width="1.2" stroke-linecap="round"/>
<path opacity="0.2" d="M84.6166 67.2494V86.4121C84.6166 88.4342 84.6166 90.1955 84.5905 91.7474H51.749C44.9841 91.7474 39.5 86.2634 39.5 79.4984C39.5 72.7335 44.9841 67.2494 51.749 67.2494H84.6166Z" fill="#818AF9"/>
<rect x="39.5" y="62.2494" width="64" height="24.4981" rx="12.249" fill="#00C2BE"/>
<path d="M56.038 70.3622V78.8823" stroke="white" stroke-width="2.93849" stroke-linecap="round" stroke-linejoin="round"/>
<path d="M59.7274 72.4922L52.3488 76.7522" stroke="white" stroke-width="2.93849" stroke-linecap="round" stroke-linejoin="round"/>
<path d="M52.3487 72.4922L59.7273 76.7522" stroke="white" stroke-width="2.93849" stroke-linecap="round" stroke-linejoin="round"/>
<path d="M71.1305 70.3622V78.8823" stroke="white" stroke-width="2.93849" stroke-linecap="round" stroke-linejoin="round"/>
<path d="M74.8198 72.4922L67.4412 76.7522" stroke="white" stroke-width="2.93849" stroke-linecap="round" stroke-linejoin="round"/>
<path d="M67.4412 72.4922L74.8198 76.7522" stroke="white" stroke-width="2.93849" stroke-linecap="round" stroke-linejoin="round"/>
<path d="M86.2224 70.3622V78.8823" stroke="white" stroke-width="2.93849" stroke-linecap="round" stroke-linejoin="round"/>
<path d="M89.9118 72.4922L82.5332 76.7522" stroke="white" stroke-width="2.93849" stroke-linecap="round" stroke-linejoin="round"/>
<path d="M82.5331 72.4922L89.9117 76.7522" stroke="white" stroke-width="2.93849" stroke-linecap="round" stroke-linejoin="round"/>
<defs>
<filter id="filter0_d_375_1145" x="21.3414" y="75.7474" width="58.3172" height="24" filterUnits="userSpaceOnUse" color-interpolation-filters="sRGB">
<feFlood flood-opacity="0" result="BackgroundImageFix"/>
<feColorMatrix in="SourceAlpha" type="matrix" values="0 0 0 0 0 0 0 0 0 0 0 0 0 0 0 0 0 0 127 0" result="hardAlpha"/>
<feOffset dy="2"/>
<feGaussianBlur stdDeviation="3"/>
<feComposite in2="hardAlpha" operator="out"/>
<feColorMatrix type="matrix" values="0 0 0 0 0.00392157 0 0 0 0 0.196078 0 0 0 0 0.113725 0 0 0 0.1 0"/>
<feBlend mode="normal" in2="BackgroundImageFix" result="effect1_dropShadow_375_1145"/>
<feBlend mode="normal" in="SourceGraphic" in2="effect1_dropShadow_375_1145" result="shape"/>
</filter>
<filter id="filter1_d_375_1145" x="21.3414" y="59.7622" width="58.3172" height="24" filterUnits="userSpaceOnUse" color-interpolation-filters="sRGB">
<feFlood flood-opacity="0" result="BackgroundImageFix"/>
<feColorMatrix in="SourceAlpha" type="matrix" values="0 0 0 0 0 0 0 0 0 0 0 0 0 0 0 0 0 0 127 0" result="hardAlpha"/>
<feOffset dy="2"/>
<feGaussianBlur stdDeviation="3"/>
<feComposite in2="hardAlpha" operator="out"/>
<feColorMatrix type="matrix" values="0 0 0 0 0.00392157 0 0 0 0 0.196078 0 0 0 0 0.113725 0 0 0 0.1 0"/>
<feBlend mode="normal" in2="BackgroundImageFix" result="effect1_dropShadow_375_1145"/>
<feBlend mode="normal" in="SourceGraphic" in2="effect1_dropShadow_375_1145" result="shape"/>
</filter>
</defs>
</svg>
