<svg width="15" height="15" viewBox="0 0 15 15" fill="none" xmlns="http://www.w3.org/2000/svg">
<g clip-path="url(#clip0_182_245)">
<path d="M12.4254 6.4063C12.4087 10.4896 7.14446 13.9681 7.14446 13.9681C7.14446 13.9681 1.90883 10.4466 1.92554 6.36333C1.93123 4.97095 2.48982 3.63787 3.4784 2.65734C4.46699 1.67681 5.8046 1.12916 7.19698 1.13486C8.58935 1.14056 9.92243 1.69914 10.903 2.68773C11.8835 3.67631 12.4311 5.01392 12.4254 6.4063Z" stroke="#ACA3A3" stroke-linecap="round" stroke-linejoin="round"/>
<path d="M7.1684 8.1348C8.13489 8.13876 8.92159 7.35847 8.92555 6.39198C8.9295 5.42549 8.14921 4.63879 7.18272 4.63483C6.21623 4.63088 5.42953 5.41117 5.42558 6.37766C5.42162 7.34415 6.20191 8.13085 7.1684 8.1348Z" stroke="#ACA3A3" stroke-linecap="round" stroke-linejoin="round"/>
</g>
<defs>
<clipPath id="clip0_182_245">
<rect width="14" height="14" fill="white" transform="translate(0.199463 0.523048) rotate(0.234481)"/>
</clipPath>
</defs>
</svg>
