<svg width="19" height="19" viewBox="0 0 19 19" fill="none" xmlns="http://www.w3.org/2000/svg">
<path d="M11.2781 1.51943L12.8879 4.75683C13.1048 5.20456 13.6871 5.62932 14.178 5.72116L17.0894 6.20333C18.9504 6.51329 19.3842 7.86795 18.0484 9.2226L15.7764 11.5072C15.3996 11.886 15.1827 12.6322 15.3083 13.1718L15.9591 15.9959C16.4728 18.223 15.2855 19.0955 13.3332 17.9245L10.6045 16.2944C10.1135 15.9959 9.29152 15.9959 8.80058 16.2944L6.07189 17.9245C4.11957 19.084 2.93221 18.223 3.44598 15.9959L4.09676 13.1718C4.22235 12.6437 4.00542 11.8975 3.62866 11.5072L1.35667 9.2226C0.0208743 7.87943 0.454718 6.52477 2.3157 6.20333L5.22704 5.72116C5.71797 5.6408 6.30025 5.20456 6.51717 4.75683L8.12698 1.51943C8.98326 -0.237028 10.399 -0.237028 11.2781 1.51943Z" fill="#FFBC11"/>
</svg>
