<svg width="16" height="16" viewBox="0 0 16 16" fill="none" xmlns="http://www.w3.org/2000/svg">
<path d="M6.09458 14.3904C4.97755 14.0578 3.98325 13.4404 3.19594 12.6223C3.48965 12.2742 3.66665 11.8244 3.66665 11.3333C3.66665 10.2288 2.77122 9.33333 1.66665 9.33333C1.59983 9.33333 1.53378 9.3366 1.46864 9.343C1.37991 8.9092 1.33331 8.46003 1.33331 8C1.33331 7.30313 1.44024 6.63123 1.63858 5.9998C1.64792 5.99993 1.65727 6 1.66665 6C2.77122 6 3.66665 5.10457 3.66665 4C3.66665 3.6829 3.59285 3.38303 3.46151 3.11666C4.23248 2.39979 5.17348 1.8633 6.21735 1.57434C6.54811 2.22269 7.22221 2.66667 7.99998 2.66667C8.77775 2.66667 9.45185 2.22269 9.78261 1.57434C10.8265 1.8633 11.7675 2.39979 12.5384 3.11666C12.4071 3.38303 12.3333 3.6829 12.3333 4C12.3333 5.10457 13.2287 6 14.3333 6C14.3427 6 14.352 5.99993 14.3614 5.9998C14.5597 6.63123 14.6666 7.30313 14.6666 8C14.6666 8.46003 14.62 8.9092 14.5313 9.343C14.4662 9.3366 14.4001 9.33333 14.3333 9.33333C13.2287 9.33333 12.3333 10.2288 12.3333 11.3333C12.3333 11.8244 12.5103 12.2742 12.804 12.6223C12.0167 13.4404 11.0224 14.0578 9.90538 14.3904C9.64758 13.5839 8.89198 13 7.99998 13C7.10798 13 6.35238 13.5839 6.09458 14.3904Z" stroke="white" stroke-width="1.5" stroke-linejoin="round"/>
<path d="M8.00002 10.3333C9.28869 10.3333 10.3334 9.28863 10.3334 7.99996C10.3334 6.71129 9.28869 5.66663 8.00002 5.66663C6.71135 5.66663 5.66669 6.71129 5.66669 7.99996C5.66669 9.28863 6.71135 10.3333 8.00002 10.3333Z" stroke="white" stroke-width="1.5" stroke-linejoin="round"/>
</svg>
