<svg width="16" height="19" viewBox="0 0 16 19" fill="none" xmlns="http://www.w3.org/2000/svg">
<path d="M5.66667 9.39998C5.66667 10.0188 5.42083 10.6123 4.98325 11.0499C4.54566 11.4875 3.95217 11.7333 3.33333 11.7333C2.71449 11.7333 2.121 11.4875 1.68342 11.0499C1.24583 10.6123 1 10.0188 1 9.39998C1 8.78115 1.24583 8.18765 1.68342 7.75007C2.121 7.31248 2.71449 7.06665 3.33333 7.06665C3.95217 7.06665 4.54566 7.31248 4.98325 7.75007C5.42083 8.18765 5.66667 8.78115 5.66667 9.39998Z" stroke="white" stroke-width="1.5"/>
<path d="M10.3334 4.26666L5.66675 7.53333M10.3334 14.5333L5.66675 11.2667" stroke="white" stroke-width="1.5" stroke-linecap="round"/>
<path d="M14.9999 15.4667C14.9999 16.0855 14.7541 16.679 14.3165 17.1166C13.8789 17.5542 13.2854 17.8 12.6666 17.8C12.0477 17.8 11.4543 17.5542 11.0167 17.1166C10.5791 16.679 10.3333 16.0855 10.3333 15.4667C10.3333 14.8478 10.5791 14.2543 11.0167 13.8168C11.4543 13.3792 12.0477 13.1333 12.6666 13.1333C13.2854 13.1333 13.8789 13.3792 14.3165 13.8168C14.7541 14.2543 14.9999 14.8478 14.9999 15.4667ZM14.9999 3.33333C14.9999 3.95217 14.7541 4.54566 14.3165 4.98325C13.8789 5.42083 13.2854 5.66667 12.6666 5.66667C12.0477 5.66667 11.4543 5.42083 11.0167 4.98325C10.5791 4.54566 10.3333 3.95217 10.3333 3.33333C10.3333 2.71449 10.5791 2.121 11.0167 1.68342C11.4543 1.24583 12.0477 1 12.6666 1C13.2854 1 13.8789 1.24583 14.3165 1.68342C14.7541 2.121 14.9999 2.71449 14.9999 3.33333Z" stroke="white" stroke-width="1.5"/>
</svg>
