<svg width="25" height="25" viewBox="0 0 25 25" fill="none" xmlns="http://www.w3.org/2000/svg">
<path d="M15.3282 23.1769L9.92818 23.1769C4.98818 23.1769 2.88818 21.0669 2.88818 16.1369L2.88818 11.6469C2.88818 11.2369 3.22818 10.8969 3.63818 10.8969C4.04818 10.8969 4.38818 11.2369 4.38818 11.6469L4.38818 16.1369C4.38818 20.2269 5.83818 21.6769 9.92818 21.6769L15.3182 21.6769C19.4082 21.6769 20.8582 20.2269 20.8582 16.1369L20.8582 11.6469C20.8582 11.2369 21.1982 10.8969 21.6082 10.8969C22.0182 10.8969 22.3582 11.2369 22.3582 11.6469L22.3582 16.1369C22.3682 21.0669 20.2582 23.1769 15.3282 23.1769Z" fill="#BFBFBF"/>
<path d="M12.6282 13.1772C11.5282 13.1772 10.5282 12.7472 9.81817 11.9572C9.10817 11.1672 8.77818 10.1372 8.88818 9.03722L9.55818 2.35722C9.59818 1.97722 9.91818 1.67722 10.3082 1.67722L14.9782 1.67722C15.3682 1.67722 15.6882 1.96722 15.7282 2.35722L16.3982 9.03722C16.5082 10.1372 16.1782 11.1672 15.4682 11.9572C14.7282 12.7472 13.7282 13.1772 12.6282 13.1772ZM10.9782 3.17722L10.3782 9.18722C10.3082 9.85722 10.5082 10.4872 10.9282 10.9472C11.7782 11.8872 13.4782 11.8872 14.3282 10.9472C14.7482 10.4772 14.9482 9.84722 14.8782 9.18722L14.2782 3.17722L10.9782 3.17722Z" fill="#BFBFBF"/>
<path d="M18.9382 13.1772C16.9082 13.1772 15.0982 11.5372 14.8882 9.51722L14.1882 2.50722C14.1682 2.29722 14.2382 2.08722 14.3782 1.92722C14.5182 1.76722 14.7182 1.67722 14.9382 1.67722L17.9882 1.67722C20.9282 1.67722 22.2982 2.90722 22.7082 5.92722L22.9882 8.70722C23.1082 9.88722 22.7482 11.0072 21.9782 11.8572C21.2082 12.7072 20.1282 13.1772 18.9382 13.1772ZM15.7682 3.17722L16.3882 9.36722C16.5182 10.6172 17.6782 11.6772 18.9382 11.6772C19.6982 11.6772 20.3782 11.3872 20.8682 10.8572C21.3482 10.3272 21.5682 9.61722 21.4982 8.85722L21.2182 6.10722C20.9082 3.84722 20.1782 3.17722 17.9882 3.17722L15.7682 3.17722Z" fill="#BFBFBF"/>
<path d="M6.2682 13.1772C5.0782 13.1772 3.9982 12.7072 3.2282 11.8572C2.4582 11.0072 2.0982 9.88722 2.2182 8.70722L2.4882 5.95722C2.9082 2.90722 4.2782 1.67722 7.2182 1.67722L10.2682 1.67722C10.4782 1.67722 10.6782 1.76722 10.8282 1.92722C10.9782 2.08722 11.0382 2.29722 11.0182 2.50722L10.3182 9.51722C10.1082 11.5372 8.29819 13.1772 6.2682 13.1772ZM7.2182 3.17722C5.0282 3.17722 4.2982 3.83722 3.9782 6.12722L3.7082 8.85722C3.6282 9.61722 3.8582 10.3272 4.3382 10.8572C4.8182 11.3872 5.4982 11.6772 6.2682 11.6772C7.5282 11.6772 8.69819 10.6172 8.81819 9.36722L9.4382 3.17722L7.2182 3.17722Z" fill="#BFBFBF"/>
<path d="M15.1282 23.1772L10.1282 23.1772C9.71817 23.1772 9.37817 22.8372 9.37817 22.4272L9.37817 19.9272C9.37817 17.8272 10.5282 16.6772 12.6282 16.6772C14.7282 16.6772 15.8782 17.8272 15.8782 19.9272L15.8782 22.4272C15.8782 22.8372 15.5382 23.1772 15.1282 23.1772ZM10.8782 21.6772L14.3782 21.6772L14.3782 19.9272C14.3782 18.6672 13.8882 18.1772 12.6282 18.1772C11.3682 18.1772 10.8782 18.6672 10.8782 19.9272L10.8782 21.6772Z" fill="#BFBFBF"/>
</svg>
