<svg width="22" height="23" viewBox="0 0 22 23" fill="none" xmlns="http://www.w3.org/2000/svg">
<path fill-rule="evenodd" clip-rule="evenodd" d="M10.9113 22.0746C16.8776 22.0746 21.7143 17.238 21.7143 11.2717C21.7143 5.30539 16.8776 0.46875 10.9113 0.46875C4.94504 0.46875 0.108398 5.30539 0.108398 11.2717C0.108398 17.238 4.94504 22.0746 10.9113 22.0746ZM7.89356 10.782C8.70372 10.782 9.36049 10.1252 9.36049 9.31507C9.36049 8.5049 8.70372 7.84813 7.89356 7.84813C7.08339 7.84813 6.42662 8.5049 6.42662 9.31507C6.42662 10.1252 7.08339 10.782 7.89356 10.782ZM15.3954 9.31506C15.3954 10.1252 14.7387 10.782 13.9285 10.782C13.1183 10.782 12.4616 10.1252 12.4616 9.31506C12.4616 8.50489 13.1183 7.84813 13.9285 7.84813C14.7387 7.84813 15.3954 8.50489 15.3954 9.31506ZM10.9112 17.4027C13.388 17.4027 15.3958 15.3533 15.3958 12.8766H6.42662C6.42662 15.3533 8.43443 17.4027 10.9112 17.4027Z" fill="#2A1E51"/>
</svg>
