<svg width="29" height="26" viewBox="0 0 29 26" fill="none" xmlns="http://www.w3.org/2000/svg">
<path d="M27.265 9.03417L19.0827 7.88104L15.425 0.690417C15.3251 0.493542 15.1607 0.334167 14.9577 0.237292C14.4485 -0.00645816 13.8298 0.196667 13.5752 0.690417L9.91748 7.88104L1.73516 9.03417C1.50958 9.06542 1.30332 9.16854 1.14541 9.32479C0.95451 9.51506 0.849313 9.77104 0.852939 10.0365C0.856564 10.3019 0.968716 10.5551 1.16475 10.7404L7.08477 16.3373L5.68614 24.2404C5.65334 24.4243 5.67432 24.6133 5.7467 24.7862C5.81908 24.9591 5.93996 25.1088 6.09564 25.2185C6.25131 25.3281 6.43556 25.3933 6.62747 25.4065C6.81939 25.4198 7.0113 25.3807 7.18145 25.2935L14.5001 21.5623L21.8188 25.2935C22.0186 25.3967 22.2506 25.431 22.473 25.3935C23.0337 25.2998 23.4107 24.7842 23.3141 24.2404L21.9154 16.3373L27.8355 10.7404C27.9966 10.5873 28.1029 10.3873 28.1352 10.1685C28.2222 9.62167 27.829 9.11542 27.265 9.03417V9.03417Z" fill="#E2E2E2"/>
</svg>
