<svg width="17" height="18" viewBox="0 0 17 18" fill="none" xmlns="http://www.w3.org/2000/svg">
<path fill-rule="evenodd" clip-rule="evenodd" d="M9.48191 0.704909C9.33333 0.737157 9.13387 0.825386 8.99748 0.919236C8.87616 1.00271 0.556965 9.3219 0.473495 9.44322C0.169421 9.88516 0.148313 10.442 0.417103 10.9301C0.465392 11.0178 1.12197 11.6859 3.36379 13.9283L6.24832 16.8137L6.4432 16.906C6.68989 17.0227 6.81505 17.0524 7.05861 17.052C7.37031 17.0514 7.64245 16.9592 7.88941 16.7705C7.95711 16.7188 9.8787 14.8089 12.1596 12.5263C15.2199 9.46377 16.3285 8.34202 16.3899 8.24583C16.4356 8.17414 16.4926 8.06337 16.5166 7.99967C16.6205 7.7235 16.6201 7.73617 16.6122 5.32762C16.6041 2.85349 16.6095 2.96166 16.4725 2.55071C16.1448 1.56814 15.3025 0.858516 14.2794 0.703145C13.9979 0.660374 9.67978 0.661974 9.48191 0.704909ZM14.2897 2.11754C14.4995 2.18511 14.6337 2.26319 14.7918 2.40962C15.0816 2.67787 15.2278 3.01009 15.2284 3.40161C15.2292 3.92769 14.9489 4.38412 14.4795 4.62123C14.2724 4.72585 14.0745 4.76329 13.7995 4.74986C13.4422 4.7324 13.1852 4.62128 12.9356 4.3763C12.7632 4.20706 12.6626 4.0478 12.5852 3.82194C12.5364 3.67912 12.5291 3.62636 12.5291 3.41187C12.529 3.20116 12.5368 3.14201 12.5831 3.00117C12.8207 2.27784 13.5749 1.88732 14.2897 2.11754Z" fill="#00C2BE"/>
</svg>
