<svg width="24" height="17" viewBox="0 0 24 17" fill="none" xmlns="http://www.w3.org/2000/svg">
<path d="M21.5002 5.68528L15.0847 11.9157C13.7395 13.2202 12.3994 14.5246 11.0618 15.8266C10.2062 16.6579 8.74997 16.6579 7.88935 15.8266C7.62688 15.5692 7.36441 15.3142 7.10698 15.0592C5.24947 13.2521 3.39701 11.4499 1.54202 9.64031C0.656171 8.78212 0.716742 7.43109 1.54202 6.56064C2.35973 5.69264 3.8841 5.75394 4.71443 6.56064C4.97942 6.81564 5.2419 7.07065 5.49932 7.32565C6.82684 8.61539 8.15435 9.91248 9.47682 11.2022C11.5791 9.15973 13.6764 7.12459 15.7762 5.0821L19.7991 1.17366C20.685 0.313016 22.0756 0.371863 22.9715 1.17366C23.8624 1.97545 23.7993 3.45154 22.969 4.25824C22.4819 4.73147 21.9872 5.21205 21.5002 5.68528Z" fill="white"/>
</svg>
