<svg width="16" height="16" viewBox="0 0 16 16" fill="none" xmlns="http://www.w3.org/2000/svg">
<path d="M9.23311 2.83356V4.44689" stroke="#818AF9" stroke-width="1.5" stroke-linecap="round" stroke-linejoin="round"/>
<path d="M9.23311 11.8401V13.1894" stroke="#818AF9" stroke-width="1.5" stroke-linecap="round" stroke-linejoin="round"/>
<path d="M9.23311 9.54975V6.33575" stroke="#818AF9" stroke-width="1.5" stroke-linecap="round" stroke-linejoin="round"/>
<path fill-rule="evenodd" clip-rule="evenodd" d="M12.4681 13.3334C13.6828 13.3334 14.6666 12.3617 14.6666 11.1621V9.43378C13.8629 9.43378 13.2155 8.79449 13.2155 8.00071C13.2155 7.20692 13.8629 6.56695 14.6666 6.56695L14.666 4.83792C14.666 3.63832 13.6814 2.66669 12.4674 2.66669H3.53259C2.31857 2.66669 1.33401 3.63832 1.33401 4.83792L1.33331 6.62326C2.1371 6.62326 2.78443 7.20692 2.78443 8.00071C2.78443 8.79449 2.1371 9.43378 1.33331 9.43378V11.1621C1.33331 12.3617 2.31718 13.3334 3.53189 13.3334H12.4681Z" stroke="white" stroke-width="1.5" stroke-linecap="round" stroke-linejoin="round"/>
</svg>
