<svg width="27" height="23" viewBox="0 0 27 23" fill="none" xmlns="http://www.w3.org/2000/svg">
<path d="M20.2208 5.91378C19.8484 5.83786 19.5435 5.59977 19.386 5.25931C17.6423 1.49701 13.6001 -0.606709 9.56025 0.154724C5.87925 0.844844 2.99362 3.84917 2.37825 7.63218C2.196 8.74902 2.2095 9.86701 2.41537 10.9563C2.48287 11.3117 2.33325 11.7073 2.02612 11.9926C0.738 13.1899 0 14.8957 0 16.6739C0 20.1613 2.77537 23 6.1875 23H18.5625C23.2155 23 27 19.1307 27 14.3735C27 10.273 24.1493 6.71432 20.2208 5.91378ZM17.0111 13.4614C16.7917 13.6857 16.5037 13.7984 16.2157 13.7984C15.9277 13.7984 15.6397 13.6857 15.4204 13.4614L13.5 11.498V17.249C13.5 17.8851 12.996 18.3992 12.375 18.3992C11.754 18.3992 11.25 17.8851 11.25 17.249V11.498L9.32963 13.4614C8.88975 13.9111 8.17875 13.9111 7.73887 13.4614C7.299 13.0117 7.299 12.2847 7.73887 11.835L10.7843 8.72141C11.2185 8.27744 11.7889 8.0543 12.3593 8.05085L12.375 8.0474L12.3907 8.05085C12.9622 8.0543 13.5315 8.27744 13.9657 8.72141L17.0111 11.835C17.451 12.2847 17.451 13.0117 17.0111 13.4614Z" fill="#1E1E1E"/>
</svg>
