<svg width="12" height="14" viewBox="0 0 12 14" fill="none" xmlns="http://www.w3.org/2000/svg">
<path d="M0.75 1.53125C0.3125 1.53125 0 1.1875 0 0.78125C0 0.34375 0.3125 0 0.75 0H11.25C11.6562 0 12 0.34375 12 0.78125C12 1.1875 11.6562 1.53125 11.25 1.53125H0.75ZM2.53125 8.53125C2.25 8.8125 1.78125 8.84375 1.46875 8.5625C1.15625 8.28125 1.15625 7.78125 1.4375 7.5L5.4375 3.21875C5.71875 2.9375 6.25 2.9375 6.53125 3.21875L10.5312 7.5C10.8125 7.78125 10.8125 8.28125 10.5 8.5625C10.3438 8.6875 10.1562 8.75 10 8.75C9.78125 8.75 9.59375 8.6875 9.4375 8.53125L6.75 5.65625V13.25C6.75 13.6875 6.40625 14 6 14C5.5625 14 5.25 13.6875 5.25 13.25V5.65625L2.53125 8.53125Z" fill="#818AF9"/>
</svg>
