<svg width="21" height="7" viewBox="0 0 21 7" fill="none" xmlns="http://www.w3.org/2000/svg">
<path fill-rule="evenodd" clip-rule="evenodd" d="M19.9626 5.86311C19.9626 5.68035 20.1123 5.53223 20.2968 5.53223C20.4816 5.53223 20.6309 5.68035 20.6309 5.86311C20.6309 6.04572 20.4816 6.194 20.2968 6.194C20.1123 6.194 19.9626 6.04572 19.9626 5.86311ZM20.2968 6.11436C20.4375 6.11436 20.551 6.00185 20.551 5.86311C20.551 5.7239 20.4375 5.61171 20.2968 5.61171C20.1568 5.61171 20.0431 5.7239 20.0431 5.86311C20.0431 6.00185 20.1568 6.11436 20.2968 6.11436ZM20.2518 6.00816H20.1834V5.71758H20.3074C20.3333 5.71758 20.3594 5.71791 20.3823 5.73215C20.4061 5.74866 20.4195 5.77602 20.4195 5.80484C20.4195 5.83802 20.4003 5.86878 20.3689 5.88011L20.4226 6.00816H20.3465L20.302 5.89306H20.2518V6.00816ZM20.2518 5.84336H20.2894C20.3037 5.84336 20.3189 5.84466 20.3313 5.83802C20.3426 5.83074 20.3485 5.81714 20.3485 5.80419C20.3485 5.7935 20.3416 5.78055 20.332 5.77489C20.3199 5.76793 20.3009 5.76938 20.2881 5.76938H20.2518V5.84336Z" fill="#0161AB"/>
<path fill-rule="evenodd" clip-rule="evenodd" d="M18.3132 6.21472H19.7964L18.5033 0.109375H17.2049C16.6051 0.109375 16.4588 0.56415 16.4588 0.56415L14.05 6.21472H15.7336L16.0702 5.30803H18.1239L18.3132 6.21472ZM16.5358 4.05525L17.3844 1.76997L17.8621 4.05525H16.5358Z" fill="#0066B2"/>
<path fill-rule="evenodd" clip-rule="evenodd" d="M14.1761 1.57731L14.4068 0.266172C14.4068 0.266172 13.6953 0 12.9539 0C12.1523 0 10.2486 0.344778 10.2486 2.02119C10.2486 3.59877 12.4831 3.61848 12.4831 4.44631C12.4831 5.27466 10.479 5.12679 9.81729 4.60431L9.57739 5.97486C9.57739 5.97486 10.2984 6.31989 11.4009 6.31989C12.5029 6.31989 14.1664 5.75798 14.1664 4.22969C14.1664 2.64226 11.9118 2.49413 11.9118 1.80405C11.9118 1.11372 13.4852 1.20244 14.1761 1.57731Z" fill="#0066B2"/>
<path fill-rule="evenodd" clip-rule="evenodd" d="M8.58193 6.21472H6.96667L7.97611 0.109375H9.59189L8.58193 6.21472Z" fill="#0066B2"/>
<path d="M7.34668 0.109375L4.77637 6.21484H3.09277L1.69043 0.911133C1.92103 1.04757 2.16045 1.20776 2.39746 1.39648C3.51171 2.28408 3.88054 3.38856 3.88574 3.4043L4.06738 4.30859L5.60742 0.109375H7.34668ZM1.37598 0.736328C1.46373 0.781938 1.55322 0.831743 1.64453 0.884766C1.5532 0.831782 1.46373 0.781916 1.37598 0.736328ZM1.08301 0.59375C1.16731 0.632452 1.25508 0.673738 1.34473 0.719727C1.25507 0.673758 1.16731 0.632446 1.08301 0.59375ZM0.680664 0.425781C0.727458 0.443615 0.775968 0.462867 0.826172 0.483398C0.775972 0.462862 0.727452 0.443623 0.680664 0.425781ZM0.164062 0.254883C0.245207 0.277155 0.353969 0.308147 0.483398 0.352539C0.35398 0.308108 0.245191 0.27719 0.164062 0.254883Z" fill="#0066B2"/>
<path fill-rule="evenodd" clip-rule="evenodd" d="M3.88536 3.40461L3.34176 0.6591C3.34176 0.6591 3.27638 0.109375 2.57565 0.109375H0.02979L0 0.212627C0.000263629 0.212627 1.22403 0.462195 2.3977 1.39691C3.51997 2.29089 3.88536 3.40461 3.88536 3.40461Z" fill="#F9A533"/>
</svg>
